<svg width="21" height="24" viewBox="0 0 21 24" fill="none" xmlns="http://www.w3.org/2000/svg">
<path d="M7.08841 23.6638C3.35732 23.6438 0.270996 16.5558 0.270996 12.9468C0.270996 7.04676 5.02406 5.75977 6.85629 5.75977C7.71314 5.817 8.5533 6.00941 9.34082 6.32877C9.79349 6.51292 10.2705 6.64004 10.7593 6.70676C11.1107 6.6432 11.4524 6.54011 11.777 6.39977C12.7416 5.98609 13.7838 5.7517 14.845 5.70976H14.8526C15.8807 5.68985 16.8983 5.9049 17.8163 6.33604C18.7344 6.76719 19.5248 7.40129 20.1182 8.18276L20.5019 8.71976L19.9495 9.10777C19.2882 9.4824 18.738 10.0048 18.3488 10.6276C17.9596 11.2503 17.7437 11.9537 17.7207 12.6738C17.6982 13.4439 17.9136 14.2039 18.3414 14.8635C18.7693 15.5231 19.3915 16.0545 20.1343 16.3948C20.4804 16.5888 20.8382 16.7878 20.8382 17.2248C20.8382 17.5098 18.3935 23.6248 14.844 23.6248C14.1414 23.6116 13.4504 23.4556 12.8194 23.1678C12.2593 22.9084 11.6429 22.7716 11.0172 22.7678C10.524 22.8156 10.0421 22.9368 9.59013 23.1268C8.80841 23.4447 7.97071 23.6267 7.1185 23.6638H7.08841Z" fill="white"/>
<path d="M15.2214 0.334961C15.3138 3.43496 12.9303 5.58896 10.5489 5.45396C10.1567 2.97796 12.9249 0.334961 15.2214 0.334961Z" fill="white"/>
</svg>
