<svg width="30" height="30" viewBox="0 0 30 30" fill="none" xmlns="http://www.w3.org/2000/svg">
<mask id="path-1-inside-1_1_257" fill="white">
<path fill-rule="evenodd" clip-rule="evenodd" d="M6 16.0354L6 12C6 7.02944 10.0294 3 15 3C19.9706 3 24 7.02944 24 12V16.0354C25.6961 16.2781 27 17.7368 27 19.5C27 21.433 25.433 23 23.5 23L6.5 23C4.567 23 3 21.433 3 19.5C3 17.7368 4.30385 16.2781 6 16.0354Z"/>
</mask>
<path d="M6 16.0354L6.35399 18.5103L8.5 18.2033L8.5 16.0354L6 16.0354ZM6 12L8.5 12L8.5 12L6 12ZM24 12L21.5 12V12H24ZM24 16.0354H21.5V18.2033L23.646 18.5103L24 16.0354ZM23.5 23L23.5 25.5H23.5V23ZM6.5 23L6.5 20.5H6.5V23ZM8.5 16.0354L8.5 12L3.5 12L3.5 16.0354L8.5 16.0354ZM8.5 12C8.5 8.41015 11.4101 5.5 15 5.5V0.5C8.64873 0.5 3.5 5.64872 3.5 12L8.5 12ZM15 5.5C18.5899 5.5 21.5 8.41015 21.5 12L26.5 12C26.5 5.64873 21.3513 0.5 15 0.5V5.5ZM21.5 12V16.0354H26.5V12H21.5ZM23.646 18.5103C24.1283 18.5792 24.5 18.9984 24.5 19.5H29.5C29.5 16.4752 27.264 13.9769 24.354 13.5606L23.646 18.5103ZM24.5 19.5C24.5 20.0523 24.0523 20.5 23.5 20.5V25.5C26.8137 25.5 29.5 22.8137 29.5 19.5H24.5ZM23.5 20.5L6.5 20.5L6.5 25.5L23.5 25.5L23.5 20.5ZM6.5 20.5C5.94772 20.5 5.5 20.0523 5.5 19.5H0.5C0.5 22.8137 3.18629 25.5 6.5 25.5V20.5ZM5.5 19.5C5.5 18.9984 5.87172 18.5792 6.35399 18.5103L5.646 13.5606C2.73599 13.9769 0.5 16.4752 0.5 19.5H5.5Z" fill="#B6BDCB" mask="url(#path-1-inside-1_1_257)"/>
<path d="M15 26.75C12.4605 26.75 10.3865 24.7571 10.2565 22.25H19.7435C19.6135 24.7571 17.5395 26.75 15 26.75Z" stroke="#B6BDCB" stroke-width="2.5"/>
</svg>
