<svg width="16" height="16" viewBox="0 0 16 16" fill="none" xmlns="http://www.w3.org/2000/svg">
    <path fill-rule="evenodd" clip-rule="evenodd"
        d="M11.8539 0.75C11.8539 0.335786 11.5181 0 11.1039 0C10.6897 0 10.3539 0.335786 10.3539 0.75V1.27173H5.64156V0.75C5.64156 0.335786 5.30577 0 4.89156 0C4.47734 0 4.14156 0.335786 4.14156 0.75V1.27173H2.36061C1.12305 1.27173 0 2.20225 0 3.49129V13.7782C0 15.0672 1.12305 15.9978 2.36061 15.9978H13.6348C14.8724 15.9978 15.9955 15.0672 15.9955 13.7782V3.49129C15.9955 2.20225 14.8724 1.27173 13.6348 1.27173H11.8539V0.75ZM4.14156 3.70967V2.77173H2.36061C1.81913 2.77173 1.5 3.1571 1.5 3.49129V5.91933H14.4955V3.49129C14.4955 3.1571 14.1763 2.77173 13.6348 2.77173H11.8539V3.70967C11.8539 4.12389 11.5181 4.45967 11.1039 4.45967C10.6897 4.45967 10.3539 4.12389 10.3539 3.70967V2.77173H5.64156V3.70967C5.64156 4.12389 5.30577 4.45967 4.89156 4.45967C4.47734 4.45967 4.14156 4.12389 4.14156 3.70967ZM14.4955 7.41933H1.5V13.7782C1.5 14.1124 1.81913 14.4978 2.36061 14.4978H13.6348C14.1763 14.4978 14.4955 14.1124 14.4955 13.7782V7.41933Z"
        fill="white" />
</svg>
