<svg width="10" height="20" viewBox="0 0 10 20" fill="none" xmlns="http://www.w3.org/2000/svg">
<path d="M9.54176 9.97989H6.61126V19.9739H2.16984V9.97989H0.0571289V6.46789H2.16984V4.19489C2.12207 3.63598 2.20522 3.07408 2.41353 2.54798C2.62183 2.02188 2.95035 1.54411 3.37639 1.14766C3.80243 0.751199 4.31585 0.445498 4.88121 0.251654C5.44657 0.057811 6.0504 -0.0195566 6.65102 0.0248917L9.94044 0.0378903V3.44689H7.55263C7.41948 3.44037 7.28644 3.46134 7.16303 3.50831C7.03962 3.55527 6.92891 3.62706 6.83883 3.71853C6.74875 3.81 6.68154 3.91889 6.64201 4.03738C6.60248 4.15587 6.59161 4.28103 6.61018 4.40389V6.47089H9.93077L9.54176 9.97989Z" fill="white"/>
</svg>
