<svg width="22" height="23" viewBox="0 0 22 23" fill="none" xmlns="http://www.w3.org/2000/svg">
<path d="M1 10.75C1 9.17621 1.74097 7.69427 3 6.75L9.5 1.875C10.3889 1.20833 11.6111 1.20833 12.5 1.875L19 6.75C20.259 7.69427 21 9.17621 21 10.75V19.5C21 20.8807 19.8807 22 18.5 22H15.375C14.6846 22 14.125 21.4404 14.125 20.75V15.75C14.125 15.0596 13.5654 14.5 12.875 14.5H9.125C8.43464 14.5 7.875 15.0596 7.875 15.75V20.75C7.875 21.4404 7.31536 22 6.625 22H3.5C2.11929 22 1 20.8807 1 19.5V10.75Z" fill="#1A9CC6" stroke="#1A9CC6"/>
</svg>
