<svg width="30" height="30" viewBox="0 0 30 30" fill="none" xmlns="http://www.w3.org/2000/svg">
<path d="M22 26.75L8 26.75C6.48121 26.75 5.25 25.5188 5.25 24L5.25 11C5.25 9.48122 6.48122 8.25 8 8.25L22 8.25C23.5188 8.25 24.75 9.48122 24.75 11L24.75 24C24.75 25.5188 23.5188 26.75 22 26.75Z" stroke="#B6BDCB" stroke-width="2.5"/>
<path d="M23.5 3.25L6.5 3.25C6.36193 3.25 6.25 3.36193 6.25 3.5C6.25 3.63807 6.36193 3.75 6.5 3.75L23.5 3.75C23.6381 3.75 23.75 3.63807 23.75 3.5C23.75 3.36193 23.6381 3.25 23.5 3.25Z" stroke="#B6BDCB" stroke-width="1.5"/>
<path d="M18.5 17.25L11.5 17.25C11.3619 17.25 11.25 17.3619 11.25 17.5C11.25 17.6381 11.3619 17.75 11.5 17.75L18.5 17.75C18.6381 17.75 18.75 17.6381 18.75 17.5C18.75 17.3619 18.6381 17.25 18.5 17.25Z" stroke="#B6BDCB" stroke-width="1.5"/>
<path d="M14.75 14L14.75 21C14.75 21.1381 14.8619 21.25 15 21.25C15.1381 21.25 15.25 21.1381 15.25 21L15.25 14C15.25 13.8619 15.1381 13.75 15 13.75C14.8619 13.75 14.75 13.8619 14.75 14Z" stroke="#B6BDCB" stroke-width="1.5"/>
</svg>
