<svg width="337" height="319" viewBox="0 0 337 319" fill="none" xmlns="http://www.w3.org/2000/svg">
<path opacity="0.53" d="M336.994 117.792C336.972 119.47 336.9 121.151 336.779 122.833C336.707 123.815 336.616 124.802 336.506 125.794C336.291 127.747 336.006 129.698 335.652 131.65C335.495 132.512 335.323 133.372 335.139 134.228C334.761 135.972 334.33 137.691 333.846 139.385C333.817 139.492 333.786 139.597 333.756 139.702C333.691 139.928 333.624 140.153 333.557 140.376C333.556 140.381 333.556 140.386 333.557 140.391C330.222 151.554 324.593 161.682 317.123 170.541C316.419 171.377 315.697 172.202 314.956 173.016C312.108 176.154 309.06 179.096 305.831 181.824C305.488 182.115 305.143 182.402 304.795 182.69C304.043 183.308 303.281 183.92 302.508 184.517C292.61 192.212 280.971 198.36 268.122 202.697C246.975 209.838 227.554 221.541 211.659 237.507C194.405 254.82 168.859 267.363 139.304 270.912C98.6369 275.797 61.1357 262.373 40.3173 238.627C39.6852 237.906 39.0688 237.176 38.468 236.437C38.4373 236.4 38.4066 236.363 38.3777 236.325C35.2525 232.486 32.5368 228.319 30.2765 223.894C30.058 223.465 29.8431 223.034 29.6354 222.605C26.6234 216.375 24.6433 209.679 23.7753 202.789C23.0694 197.166 23.1217 191.471 23.9306 185.863C24.1136 184.582 24.3351 183.308 24.5951 182.039C25.7304 176.575 27.5171 171.272 29.9153 166.25C34.598 156.344 41.6193 147.15 50.5025 139.136C65.8026 125.367 75.4176 106.196 77.4104 85.4847C77.6331 83.1346 77.9594 80.785 78.3892 78.4361C84.1789 46.7737 107.692 22.2869 139.847 9.60238C156.068 3.20395 174.488 -0.19234 193.941 0.00841638C204.58 0.129657 215.183 1.28229 225.608 3.45075C229.942 4.34587 234.186 5.39692 238.341 6.60392C245.137 8.56416 251.803 10.9633 258.3 13.787C305.869 34.4759 337.535 75.469 336.994 117.792Z" fill="#BBE5E7"/>
<path opacity="0.53" d="M241.615 246.907C232.686 254.759 224.869 266.155 227.598 273.505C230.043 280.101 233.862 287.819 243.488 286.111C251.469 284.694 260.881 266.335 268.933 260.248C277.309 253.922 288.407 254.019 291.998 243.667C297.354 228.207 281.391 226.918 267.552 231.64C258.702 234.655 248.75 240.633 241.615 246.907Z" fill="#BBE5E7"/>
<path opacity="0.53" d="M47.808 107.856C40.6203 118.113 28.8748 127.327 19.3221 124.709C10.71 122.357 0.421974 118.561 0.00462179 107.853C-0.346484 98.9839 19.4082 87.6428 24.6814 78.4494C30.1666 68.886 27.1922 56.6559 38.772 52.1596C56.0358 45.4437 61.7131 62.9617 59.5866 78.4608C58.2021 88.3854 53.545 99.6664 47.808 107.856Z" fill="#BBE5E7"/>
<path d="M109.527 132.119C109.431 132.119 109.336 132.097 109.249 132.053C109.162 132.01 109.086 131.947 109.027 131.869C108.865 131.653 105.054 126.528 105.885 120.947C106.288 118.256 107.149 115.79 108.328 114.009C109.592 112.084 111.091 111.147 112.545 111.375C113.999 111.603 115.151 112.952 115.796 115.175C116.392 117.234 116.498 119.849 116.094 122.542C115.256 128.124 110.111 131.849 109.892 132.005C109.785 132.08 109.658 132.12 109.527 132.119ZM112.126 112.631C111.252 112.631 110.264 113.381 109.379 114.727C108.308 116.355 107.51 118.634 107.135 121.142C106.524 125.203 108.76 129.154 109.663 130.55C110.927 129.495 114.23 126.406 114.839 122.345C115.216 119.836 115.124 117.42 114.579 115.53C114.089 113.838 113.276 112.784 112.35 112.64C112.276 112.631 112.201 112.628 112.126 112.631V112.631Z" fill="#C2F1F9"/>
<path d="M125.967 62.1144C125.842 62.1143 125.721 62.0769 125.617 62.0068C125.513 61.9367 125.432 61.8371 125.384 61.7202C125.272 61.4477 122.66 54.9682 125.071 49.3378C126.234 46.6211 127.823 44.2747 129.544 42.7349C131.394 41.0773 133.208 40.5248 134.659 41.1694C137.526 42.4476 137.808 48.0356 135.302 53.8944C132.891 59.5248 126.453 61.9744 126.184 62.0757C126.114 62.1019 126.041 62.115 125.967 62.1144V62.1144ZM133.407 42.2008C132.538 42.2008 131.477 42.7202 130.379 43.7037C128.793 45.1219 127.319 47.3063 126.225 49.8535C124.432 54.0454 125.766 58.9336 126.328 60.617C127.921 59.8913 132.349 57.5596 134.139 53.3769C136.511 47.8367 136.06 43.2027 134.149 42.3518C133.915 42.2497 133.662 42.1983 133.407 42.2008V42.2008Z" fill="#EFF9FB"/>
<path d="M129.419 80.1426C129.274 80.1423 129.133 80.0909 129.02 79.9969C128.907 79.903 128.829 79.7724 128.8 79.6269C128.735 79.3028 127.259 71.628 131.099 65.9976C132.955 63.2772 135.196 61.0615 137.419 59.7575C139.78 58.3651 141.867 58.1588 143.296 59.1737C146.142 61.1996 145.244 67.355 141.255 73.2009C137.414 78.8294 129.844 80.0837 129.517 80.1334C129.485 80.1392 129.452 80.1422 129.419 80.1426V80.1426ZM141.177 59.8349C140.291 59.8349 139.213 60.1867 138.044 60.8755C135.987 62.0874 133.891 64.1686 132.137 66.7361C129.213 71.0183 129.685 76.8292 129.939 78.7355C131.781 78.3174 137.288 76.75 140.21 72.4733C143.675 67.3955 144.755 61.7909 142.566 60.2401C142.156 59.9635 141.673 59.8221 141.181 59.8349H141.177Z" fill="#EFF9FB"/>
<path d="M127.995 95.7024C125.797 95.7024 122.951 95.3046 120.53 93.6672C118.305 92.168 116.477 90.3262 115.383 88.4844C114.202 86.5045 113.999 84.7253 114.81 83.4765C115.621 82.2278 117.308 81.7268 119.556 82.0657C121.638 82.3788 124.011 83.3789 126.238 84.8837C130.854 88.0055 132.004 94.3321 132.051 94.5992C132.078 94.7616 132.043 94.9284 131.954 95.0654C131.864 95.2024 131.726 95.2992 131.569 95.3359C130.393 95.5823 129.196 95.7051 127.995 95.7024ZM118.26 83.2574C117.111 83.2574 116.262 83.5815 115.865 84.1949C115.347 84.9924 115.565 86.3129 116.463 87.8214C117.463 89.4956 119.155 91.1918 121.228 92.5935C124.595 94.8699 129.044 94.4537 130.664 94.2032C130.26 92.5824 128.896 88.2358 125.537 85.963C123.464 84.5614 121.275 83.6331 119.372 83.3458C119.004 83.289 118.632 83.2595 118.26 83.2574V83.2574Z" fill="#EFF9FB"/>
<path d="M131.866 95.3378C131.725 95.3379 131.588 95.2897 131.476 95.2008C131.365 95.112 131.286 94.9878 131.252 94.8478C131.189 94.5826 129.721 88.3242 132.697 83.5613C134.131 81.2645 135.901 79.3675 137.678 78.22C139.597 76.9787 141.338 76.7466 142.577 77.5441C143.816 78.3416 144.34 80.0581 144.049 82.3567C143.78 84.4858 142.841 86.9226 141.409 89.2193C138.433 93.984 132.251 95.2751 131.991 95.3267C131.95 95.335 131.908 95.3387 131.866 95.3378V95.3378ZM140.921 78.3655C140.199 78.3655 139.314 78.686 138.353 79.3067C136.728 80.3565 135.103 82.1136 133.763 84.2538C131.595 87.7274 132.081 92.2583 132.358 93.9048C133.934 93.4573 138.176 91.9838 140.34 88.5249C141.676 86.3847 142.546 84.1359 142.792 82.191C143.014 80.4412 142.687 79.1428 141.889 78.6289C141.597 78.4498 141.262 78.3585 140.921 78.3655V78.3655Z" fill="#EFF9FB"/>
<path d="M240.662 114.22C237.975 114.193 235.304 113.806 232.716 113.069C224.266 110.719 219.446 101.775 219.244 101.396C219.167 101.25 219.148 101.08 219.19 100.92C219.233 100.76 219.334 100.623 219.473 100.537C219.834 100.315 228.441 95.1078 236.891 97.4598C245.646 99.8946 251.588 105.23 250.417 109.616C249.836 111.789 247.615 113.323 244.162 113.937C243.005 114.134 241.834 114.229 240.662 114.22V114.22ZM220.674 101.328C221.857 103.291 226.291 109.94 233.048 111.826C236.969 112.916 240.839 113.213 243.945 112.66C246.845 112.144 248.76 110.909 249.197 109.269C250.148 105.713 244.36 100.873 236.555 98.703C229.796 96.8188 222.677 100.252 220.681 101.333L220.674 101.328Z" fill="#C2F1F9"/>
<path d="M219.373 101.166C219.263 101.165 219.155 101.134 219.06 101.078C218.965 101.021 218.886 100.94 218.831 100.843C218.62 100.475 213.674 91.5993 216.133 83.0257C218.683 74.1427 224.025 68.1826 228.293 69.4571C232.56 70.7316 233.909 78.6882 231.363 87.5713C228.901 96.1449 220.047 100.895 219.671 101.094C219.579 101.142 219.477 101.166 219.373 101.166V101.166ZM227.101 70.5751C223.725 70.5751 219.436 76.0858 217.349 83.3885C215.379 90.2566 218.613 97.5704 219.635 99.6332C221.582 98.4637 228.181 94.0655 230.149 87.2084C232.421 79.2887 231.413 71.7373 227.939 70.6948C227.666 70.6136 227.384 70.5733 227.101 70.5751V70.5751Z" fill="#C2F1F9"/>
<path d="M26.9654 281.69C27.9719 281.969 28.9573 282.244 29.9217 282.516C44.9323 286.77 55.1049 290.697 64.2048 300.107C64.948 300.874 65.6503 301.682 66.3087 302.527C73.8321 312.154 72.7142 322.547 75.9865 317.814C88.4905 299.703 136.665 254.415 136.665 254.415C141.144 249.733 146.786 246.377 152.988 244.707C160.692 242.637 172.234 238.985 183.376 233.345C184.398 232.828 185.416 232.293 186.43 231.741C198.928 224.926 210.419 215.533 214.75 202.946C223.779 176.715 217.379 149.254 200.568 133.158C195.425 128.213 189.322 124.424 182.652 122.037C164.62 115.591 145.109 120.251 129.995 132.668C126.988 135.138 124.198 137.87 121.654 140.833C119.745 143.043 117.082 142.397 115.985 138.84C115.746 138.079 115.565 137.301 115.444 136.512C115.165 134.691 115.22 132.86 115.232 130.034C115.254 124.373 129.074 65.2821 108.603 71.1335C108.39 71.1943 108.146 71.1335 107.955 71.2385C107.18 71.6755 106.453 72.196 105.787 72.7912C104.798 73.6728 104.006 74.7606 103.465 75.9812C101.889 79.5579 102.828 83.4828 102.676 85.8624C102.518 88.2085 102.24 90.5445 101.845 92.8613V92.8613C101.392 95.624 100.81 98.3867 100.189 101.131C99.2736 105.212 98.2785 109.268 97.5038 113.232C96.7146 117.258 95.8279 121.323 94.8961 125.415C94.7371 126.111 94.577 126.808 94.4157 127.506C90.2621 145.52 85.3862 164.034 84.1943 182.058C84.1708 182.397 84.151 182.736 84.1311 183.073C83.8042 188.679 84.2395 195.52 86.0616 201.624C87.0107 204.751 87.1313 208.079 86.4113 211.27C85.6913 214.46 84.1563 217.399 81.9622 219.789C81.9622 219.789 50.7202 246.127 34.0193 261.326C31.491 263.626 29.2878 265.67 27.5831 267.33C26.7415 268.172 11.3625 277.392 26.9654 281.69Z" fill="#F3B8B4"/>
<path d="M112.378 144.512L111.866 220.882C111.847 224.055 113.064 227.105 115.248 229.364C117.433 231.622 120.407 232.904 123.518 232.928L183.376 233.344C197.022 226.435 210.071 216.548 214.75 202.954C223.78 176.723 217.38 149.262 200.568 133.166L129.996 132.676C126.989 135.144 124.198 137.873 121.654 140.834C119.746 143.044 117.082 142.397 115.986 138.841C115.747 138.08 115.566 137.302 115.444 136.513C113.483 138.698 112.389 141.549 112.378 144.512V144.512Z" fill="#E29191"/>
<path d="M218.712 78.1505C221.62 80.2391 226.658 79.355 232.256 76.329L232.549 76.1687C235.698 74.4319 239.021 72.0283 242.245 69.1017C244.744 66.8322 247.067 64.3692 249.194 61.7345C257.264 51.7298 259.715 42.5797 256.464 38.7396C255.826 38.0003 254.994 37.4617 254.066 37.1869C249.161 35.6361 240.468 39.6107 232.455 46.7072C230.778 48.1905 229.18 49.7644 227.668 51.4222C217.874 62.1323 213.381 74.3232 218.712 78.1505Z" fill="#F3B8B4"/>
<path d="M237.4 106.154C246.856 101.434 252.847 94.0462 249.893 89.6793C246.675 84.92 234.705 86.1043 224.3 92.2117C214.745 97.82 211.117 104.977 215.229 108.355C219.043 111.492 228.616 110.541 237.4 106.154Z" fill="#E29191"/>
<path d="M232.546 76.168C238.05 73.1345 244.082 68.064 249.191 61.7264C257.262 51.7217 259.712 42.5716 256.462 38.7314C251.501 45.0267 234.989 65.3952 227.477 67.3531C222.758 68.5926 227.269 72.6335 232.546 76.168Z" fill="#E29191"/>
<path d="M232.451 46.6997L232.252 76.3288L232.545 76.1686C235.694 74.4318 239.017 72.0282 242.24 69.1016L232.451 46.6997Z" fill="#E29191"/>
<path d="M101.865 92.863C103.723 89.0924 104.515 84.8684 104.151 80.6647C104.015 79.0919 103.793 77.5282 103.485 75.981C101.909 79.5577 102.847 83.4826 102.696 85.8623C102.538 88.2089 102.26 90.5456 101.865 92.863V92.863Z" fill="#F7CBC6"/>
<path d="M132.919 230.455C132.919 230.455 115.326 231.536 106.914 237.864C100.922 242.375 100.922 242.375 95.457 249.519C95.457 249.519 104.716 242.415 109.066 239.951C117.689 235.066 126.305 234.313 135.136 233.007C137.845 232.606 145.972 231.259 145.972 231.259L132.919 230.455Z" fill="#E29191"/>
<path d="M66.3086 302.532C73.832 312.159 72.7141 322.553 75.9864 317.819C88.4904 299.709 136.665 254.421 136.665 254.421C141.144 249.738 146.786 246.383 152.988 244.713C160.692 242.642 172.234 238.99 183.376 233.351C184.398 232.834 185.416 232.299 186.43 231.746L149.015 231.29C149.015 231.29 129.3 244.854 117.546 257.789C104.117 272.561 78.5887 284.606 66.3086 302.532Z" fill="#E29191"/>
<path d="M128.859 228.444L221.572 229.089C224.683 229.109 227.675 227.869 229.889 225.64C232.104 223.412 233.361 220.378 233.384 217.205L234.542 44.0666C234.561 40.894 233.345 37.8434 231.16 35.5849C228.975 33.3263 226.001 32.0446 222.89 32.0212L130.177 31.3748C127.066 31.3547 124.074 32.5952 121.859 34.8238C119.644 37.0524 118.387 40.0867 118.365 43.2599L117.207 216.389C117.186 219.564 118.401 222.617 120.586 224.877C122.771 227.138 125.747 228.421 128.859 228.444V228.444Z" fill="#006D94"/>
<path d="M125.335 218.27L225.235 218.965C225.316 218.966 225.396 218.95 225.471 218.919C225.545 218.888 225.613 218.843 225.671 218.785C225.728 218.728 225.774 218.659 225.805 218.583C225.836 218.508 225.853 218.426 225.853 218.344L226.991 48.3124C226.992 48.1462 226.928 47.9863 226.814 47.8679C226.699 47.7495 226.543 47.6822 226.38 47.6807L126.48 46.9863C126.399 46.9859 126.319 47.0016 126.245 47.0326C126.17 47.0636 126.102 47.1093 126.045 47.1671C125.987 47.225 125.942 47.2937 125.91 47.3695C125.879 47.4453 125.863 47.5266 125.862 47.6089L124.725 217.641C124.724 217.723 124.74 217.804 124.77 217.88C124.8 217.957 124.845 218.026 124.902 218.084C124.959 218.143 125.026 218.189 125.1 218.221C125.175 218.253 125.254 218.27 125.335 218.27Z" fill="#EFF9FB"/>
<path d="M127.18 106.419C127.082 121.199 133.009 134.552 142.561 143.938C143.559 144.92 144.596 145.857 145.672 146.749C152.806 152.69 161.465 156.412 170.617 157.47C170.774 157.486 170.93 157.505 171.087 157.519C171.15 157.519 171.213 157.534 171.267 157.54L171.683 157.58C172.831 157.686 173.991 157.747 175.163 157.764H175.563C175.863 157.764 176.163 157.764 176.466 157.764C177.947 157.75 179.413 157.667 180.864 157.516C181.044 157.497 181.239 157.477 181.427 157.453C181.823 157.409 182.216 157.357 182.61 157.302C182.87 157.265 183.132 157.227 183.39 157.184C192.281 155.76 200.603 151.821 207.409 145.815C208.492 144.861 209.54 143.858 210.551 142.805C219.306 133.655 224.754 121.046 224.848 107.089C225.029 78.9094 203.324 55.92 176.354 55.7321C149.385 55.5443 127.37 78.2408 127.18 106.419Z" fill="#B1E1EA" stroke="#B1E1EA" stroke-width="5" stroke-miterlimit="10"/>
<path opacity="0.36" d="M177.168 40.8542C178.895 40.4741 179.992 38.7385 179.62 36.9776C179.247 35.2166 177.545 34.0973 175.819 34.4773C174.092 34.8574 172.994 36.593 173.367 38.3539C173.74 40.1149 175.442 41.2342 177.168 40.8542Z" fill="#EFF9FB"/>
<path opacity="0.36" d="M167.748 225.431L183.429 225.539C183.998 225.543 184.546 225.316 184.953 224.908C185.359 224.5 185.59 223.945 185.596 223.364C185.599 222.783 185.376 222.224 184.976 221.809C184.576 221.395 184.031 221.159 183.461 221.154L167.78 221.043C167.21 221.04 166.662 221.267 166.256 221.675C165.85 222.083 165.619 222.639 165.613 223.22V223.22C165.609 223.802 165.832 224.362 166.232 224.776C166.633 225.19 167.178 225.426 167.748 225.431V225.431Z" fill="#EFF9FB"/>
<path d="M164.697 171.956H165.759C166.956 171.947 167.687 172.533 167.698 173.772C167.709 175.012 166.987 175.64 165.831 175.651H164.728L164.697 171.956ZM165.737 175.063C166.481 175.063 166.929 174.669 166.922 173.774C166.914 172.879 166.461 172.525 165.717 172.533H165.459L165.481 175.069L165.737 175.063Z" fill="#EFF9FB"/>
<path d="M154.796 179.111H155.072L155.103 182.837H154.828L154.796 179.111Z" fill="#EFF9FB"/>
<path d="M156.242 180.109H156.466L156.497 180.531H156.508C156.798 180.253 157.094 180.037 157.49 180.036C158.084 180.036 158.362 180.367 158.367 181.069L158.382 182.809H158.118L158.104 181.1C158.104 180.524 157.903 180.253 157.443 180.257C157.1 180.257 156.854 180.441 156.508 180.774L156.526 182.822H156.26L156.242 180.109Z" fill="#EFF9FB"/>
<path d="M159.533 182.048L159.518 180.301H159.07V180.116L159.524 180.089L159.551 179.302H159.776V180.087H160.609V180.306H159.778L159.793 182.072C159.793 182.419 159.888 182.653 160.285 182.649C160.41 182.639 160.532 182.609 160.647 182.559L160.717 182.761C160.567 182.818 160.409 182.854 160.249 182.866C159.702 182.862 159.538 182.533 159.533 182.048Z" fill="#EFF9FB"/>
<path d="M161.048 181.43C161.048 180.546 161.644 179.995 162.288 179.99C162.967 179.99 163.39 180.437 163.397 181.237C163.398 181.304 163.394 181.372 163.384 181.439L161.319 181.458C161.335 182.143 161.763 182.629 162.411 182.624C162.686 182.621 162.954 182.535 163.18 182.375L163.29 182.559C163.022 182.738 162.708 182.833 162.388 182.834C161.655 182.846 161.055 182.318 161.048 181.43ZM163.148 181.237C163.148 180.542 162.806 180.2 162.292 180.205C161.806 180.205 161.371 180.603 161.317 181.251L163.148 181.237Z" fill="#EFF9FB"/>
<path d="M164.193 180.04H164.417L164.45 180.546H164.464C164.656 180.211 164.934 179.968 165.275 179.964C165.373 179.96 165.47 179.979 165.56 180.02L165.502 180.246C165.419 180.214 165.331 180.2 165.242 180.204C164.984 180.204 164.679 180.388 164.466 180.909L164.48 182.751H164.217L164.193 180.04Z" fill="#EFF9FB"/>
<path d="M166.12 180.023H166.344L166.375 180.443H166.389C166.68 180.165 166.976 179.949 167.371 179.945C167.965 179.945 168.243 180.279 168.249 180.98L168.263 182.721H168L167.985 181.012C167.985 180.435 167.785 180.165 167.324 180.168C166.981 180.168 166.736 180.352 166.389 180.686L166.407 182.734H166.142L166.12 180.023Z" fill="#EFF9FB"/>
<path d="M169.149 182.036C169.149 181.433 169.716 181.141 170.993 180.995C170.993 180.579 170.872 180.133 170.309 180.139C169.982 180.152 169.668 180.266 169.406 180.465L169.281 180.28C169.595 180.058 169.964 179.93 170.346 179.912C171.027 179.912 171.26 180.373 171.265 180.953L171.28 182.688H171.056L171.025 182.336H171.011C170.726 182.586 170.371 182.736 169.996 182.765C169.523 182.785 169.149 182.546 169.149 182.036ZM171.002 182.109V181.188C169.823 181.327 169.422 181.59 169.426 182.023C169.426 182.411 169.709 182.559 170.04 182.557C170.37 182.555 170.641 182.399 170.993 182.109H171.002Z" fill="#EFF9FB"/>
<path d="M172.313 182.319L172.282 178.615H172.546L172.577 182.352C172.577 182.474 172.631 182.536 172.703 182.536C172.739 182.537 172.776 182.533 172.811 182.525L172.856 182.728C172.798 182.747 172.737 182.757 172.676 182.757C172.436 182.75 172.315 182.617 172.313 182.319Z" fill="#EFF9FB"/>
<path d="M174.985 178.935H175.375L176.217 181.114C176.321 181.389 176.428 181.667 176.534 181.939H176.553C176.654 181.663 176.744 181.387 176.845 181.109L177.647 178.915H178.037L178.069 182.643H177.816L177.795 180.193C177.795 179.891 177.807 179.497 177.822 179.186H177.797L177.497 180.02L176.666 182.245H176.428L175.556 180.035L175.238 179.208H175.213C175.231 179.519 175.254 179.911 175.256 180.214L175.278 182.663H175.023L174.985 178.935Z" fill="#EFF9FB"/>
<path d="M178.984 181.274C178.984 180.388 179.58 179.837 180.223 179.832C180.904 179.832 181.326 180.279 181.333 181.078C181.335 181.147 181.33 181.215 181.319 181.283L179.255 181.299C179.271 181.986 179.699 182.471 180.339 182.465C180.614 182.465 180.882 182.379 181.108 182.219L181.218 182.403C180.95 182.583 180.636 182.679 180.315 182.679C179.589 182.688 178.992 182.161 178.984 181.274ZM181.084 181.078C181.084 180.386 180.743 180.043 180.228 180.047C179.743 180.047 179.308 180.445 179.253 181.095L181.084 181.078Z" fill="#EFF9FB"/>
<path d="M181.903 181.248C181.903 180.371 182.479 179.811 183.167 179.806C183.485 179.809 183.792 179.924 184.036 180.132L184.018 179.633V178.515H184.281L184.316 182.583H184.092L184.061 182.231H184.048C183.801 182.489 183.468 182.642 183.115 182.659C182.382 182.664 181.911 182.163 181.903 181.248ZM184.034 181.985L184.021 180.375C183.792 180.159 183.492 180.037 183.18 180.032C182.609 180.032 182.174 180.568 182.18 181.25C182.18 181.972 182.53 182.447 183.138 182.441C183.456 182.432 183.736 182.274 184.034 181.979V181.985Z" fill="#EFF9FB"/>
<path d="M185.301 178.975C185.308 178.916 185.336 178.861 185.381 178.821C185.425 178.781 185.482 178.759 185.541 178.759C185.6 178.759 185.657 178.781 185.701 178.821C185.745 178.861 185.774 178.916 185.781 178.975C185.78 179.006 185.774 179.037 185.761 179.065C185.749 179.093 185.731 179.118 185.709 179.139C185.686 179.16 185.66 179.176 185.632 179.186C185.603 179.196 185.573 179.2 185.543 179.198C185.512 179.201 185.482 179.197 185.453 179.186C185.424 179.176 185.398 179.16 185.375 179.14C185.353 179.119 185.334 179.094 185.322 179.065C185.309 179.037 185.302 179.007 185.301 178.975V178.975ZM185.411 179.852H185.676L185.698 182.567H185.434L185.411 179.852Z" fill="#EFF9FB"/>
<path d="M186.578 181.207C186.578 180.299 187.179 179.771 187.878 179.765C188.19 179.76 188.491 179.877 188.721 180.091L188.568 180.275C188.383 180.097 188.14 179.996 187.885 179.992C187.299 179.992 186.849 180.496 186.856 181.211C186.863 181.926 187.279 182.408 187.903 182.403C188.188 182.393 188.459 182.279 188.669 182.082L188.806 182.257C188.554 182.487 188.23 182.617 187.893 182.626C187.15 182.622 186.585 182.104 186.578 181.207Z" fill="#EFF9FB"/>
<path d="M189.409 178.942C189.416 178.882 189.445 178.827 189.489 178.787C189.533 178.747 189.59 178.725 189.649 178.725C189.708 178.725 189.765 178.747 189.81 178.787C189.854 178.827 189.882 178.882 189.889 178.942C189.882 179.002 189.854 179.057 189.81 179.097C189.765 179.136 189.708 179.159 189.649 179.159C189.59 179.159 189.533 179.136 189.489 179.097C189.445 179.057 189.416 179.002 189.409 178.942ZM189.519 179.819H189.785L189.806 182.535H189.543L189.519 179.819Z" fill="#EFF9FB"/>
<path d="M190.915 179.804H191.139L191.171 180.224H191.184C191.475 179.946 191.773 179.731 192.168 179.727C192.762 179.727 193.04 180.06 193.046 180.76L193.06 182.503H192.805L192.791 180.795C192.791 180.219 192.591 179.946 192.128 179.952C191.787 179.952 191.542 180.136 191.195 180.469L191.213 182.517H190.948L190.915 179.804Z" fill="#EFF9FB"/>
<path d="M193.89 181.142C193.89 180.256 194.485 179.706 195.128 179.7C195.809 179.7 196.231 180.148 196.239 180.947C196.24 181.015 196.235 181.083 196.224 181.15L194.16 181.168C194.177 181.853 194.605 182.34 195.244 182.334C195.519 182.333 195.787 182.247 196.013 182.087L196.123 182.271C195.855 182.45 195.541 182.546 195.22 182.548C194.5 182.557 193.902 182.03 193.89 181.142ZM195.99 180.947C195.99 180.253 195.648 179.912 195.134 179.916C194.648 179.916 194.211 180.314 194.157 180.964L195.99 180.947Z" fill="#EFF9FB"/>
<path d="M226.339 150.554C226.426 151.382 226.706 152.177 227.156 152.873C227.607 153.568 228.214 154.142 228.928 154.549C229.641 154.955 230.439 155.18 231.256 155.207C232.072 155.233 232.883 155.059 233.62 154.7C237.413 152.839 242.083 149.707 244.768 144.798C249.588 135.981 250.28 126.899 246.502 123.888C246.316 123.737 246.119 123.602 245.911 123.485C241.483 120.967 233.792 126.432 228.732 135.679C226.055 140.588 225.896 146.284 226.339 150.554Z" fill="#F3B8B4"/>
<path d="M228.685 154.406C229.415 154.881 230.253 155.158 231.118 155.209C231.984 155.261 232.847 155.086 233.627 154.7C237.42 152.84 242.09 149.707 244.775 144.799C249.595 135.982 250.287 126.9 246.509 123.889C244.968 129.674 241.299 139.966 240.04 141.844C236.092 147.727 235.182 149.672 228.685 154.406Z" fill="#E29191"/>
<path opacity="0.75" d="M230.857 139.661C230.857 139.661 225.152 149.592 229.389 152.145C233.625 154.698 237.461 150.473 237.461 150.473C237.461 150.473 233.34 150.822 231.762 149.647C230.183 148.472 230.086 141 230.857 139.661Z" fill="#F7CBC6"/>
<path d="M225.939 179.51C226.257 181.106 227.384 182.442 228.801 183.219C230.161 183.956 231.79 184.195 233.228 183.656C236.724 182.34 240.964 179.994 243.171 175.957C246.479 169.908 247.019 163.479 244.874 159.83C244.35 158.909 243.595 158.146 242.687 157.62C238.259 155.1 231.295 159.228 227.135 166.838C224.928 170.872 225.199 175.786 225.939 179.51Z" fill="#F3B8B4"/>
<path d="M228.801 183.22C230.161 183.956 231.79 184.196 233.227 183.656C236.723 182.341 240.964 179.995 243.17 175.957C246.479 169.909 247.019 163.479 244.873 159.831C243.768 163.557 242.195 168.511 241.03 170.854C239.34 174.254 232.34 180.527 228.801 183.22Z" fill="#E29191"/>
<path opacity="0.75" d="M228.498 171.042C228.498 171.042 225.79 176.2 228.513 179.421C230.319 181.554 235.097 179.008 235.097 179.008C233.294 179.12 231.51 178.57 230.07 177.458C228.392 176.179 228.498 171.042 228.498 171.042Z" fill="#F7CBC6"/>
<path d="M229.02 118.398C229.095 119.116 229.292 119.814 229.601 120.463C230.613 122.505 232.718 123.062 235.223 121.752C239.196 119.684 244.532 116.028 247.518 110.298C251.79 102.104 252.95 93.8654 250.738 89.8779C250.31 89.0642 249.66 88.3949 248.867 87.9514C244.43 85.5441 236.633 91.6497 231.454 101.581C228.467 107.323 228.478 113.877 229.02 118.398Z" fill="#F3B8B4"/>
<path d="M229.602 120.462C230.613 122.505 232.719 123.061 235.223 121.751C239.196 119.683 244.533 116.027 247.518 110.297C251.791 102.103 252.95 93.8645 250.738 89.877C248.849 95.5976 244.999 106.354 241.974 109.104C239.193 111.64 234.358 116.126 229.602 120.462Z" fill="#E29191"/>
<path opacity="0.75" d="M233.786 104.858C233.786 104.858 228.677 115.122 233.064 117.41C237.45 119.697 241.024 115.246 241.024 115.246C241.024 115.246 237.694 116.876 235.458 115.1C232.536 112.796 233.094 106.241 233.786 104.858Z" fill="#F7CBC6"/>
<path d="M212.433 197.48C212.433 192.065 208.1 187.612 202.756 187.533C197.412 187.454 193.079 191.78 193.079 197.195C193.079 202.61 197.412 207.064 202.756 207.143C208.1 207.222 212.433 202.896 212.433 197.48Z" fill="#BBE5E7"/>
<path d="M185.719 197.519C185.719 192.109 181.382 187.653 176.033 187.566C170.683 187.479 166.347 191.794 166.347 197.204C166.347 202.614 170.683 207.071 176.033 207.157C181.382 207.244 185.719 202.929 185.719 197.519Z" fill="#BBE5E7"/>
<path d="M153.748 177C153.447 177 153.216 176.919 153.055 176.758C152.894 176.597 152.813 176.366 152.813 176.065V170.18C152.813 169.879 152.894 169.648 153.055 169.487C153.216 169.326 153.447 169.245 153.748 169.245H155.97C156.828 169.245 157.565 169.403 158.181 169.718C158.804 170.026 159.281 170.47 159.611 171.049C159.941 171.628 160.106 172.318 160.106 173.117C160.106 173.924 159.941 174.62 159.611 175.207C159.288 175.786 158.815 176.23 158.192 176.538C157.576 176.846 156.835 177 155.97 177H153.748ZM155.827 175.372C156.582 175.372 157.147 175.189 157.521 174.822C157.902 174.448 158.093 173.88 158.093 173.117C158.093 172.354 157.902 171.79 157.521 171.423C157.147 171.056 156.582 170.873 155.827 170.873H154.837V175.372H155.827ZM163.917 177.088C163.323 177.088 162.798 176.974 162.344 176.747C161.896 176.512 161.548 176.182 161.299 175.757C161.057 175.332 160.936 174.833 160.936 174.261C160.936 173.689 161.057 173.194 161.299 172.776C161.548 172.351 161.896 172.024 162.344 171.797C162.791 171.57 163.315 171.456 163.917 171.456C164.518 171.456 165.042 171.57 165.49 171.797C165.937 172.024 166.282 172.351 166.524 172.776C166.773 173.194 166.898 173.689 166.898 174.261C166.898 174.833 166.773 175.332 166.524 175.757C166.282 176.182 165.937 176.512 165.49 176.747C165.042 176.974 164.518 177.088 163.917 177.088ZM163.917 175.625C164.613 175.625 164.962 175.17 164.962 174.261C164.962 173.352 164.613 172.897 163.917 172.897C163.22 172.897 162.872 173.352 162.872 174.261C162.872 175.17 163.22 175.625 163.917 175.625ZM170.391 177.088C169.511 177.088 168.815 176.839 168.301 176.34C167.788 175.841 167.531 175.163 167.531 174.305C167.531 173.74 167.656 173.242 167.905 172.809C168.155 172.376 168.503 172.043 168.95 171.808C169.405 171.573 169.922 171.456 170.501 171.456C170.809 171.456 171.117 171.496 171.425 171.577C171.733 171.658 172.005 171.771 172.239 171.918C172.467 172.057 172.58 172.27 172.58 172.556C172.58 172.783 172.525 172.97 172.415 173.117C172.313 173.256 172.177 173.326 172.008 173.326C171.898 173.326 171.792 173.311 171.689 173.282C171.587 173.245 171.473 173.194 171.348 173.128C171.202 173.062 171.077 173.014 170.974 172.985C170.872 172.948 170.758 172.93 170.633 172.93C169.907 172.93 169.544 173.374 169.544 174.261C169.544 174.701 169.636 175.038 169.819 175.273C170.01 175.5 170.281 175.614 170.633 175.614C170.758 175.614 170.872 175.599 170.974 175.57C171.084 175.533 171.205 175.482 171.337 175.416C171.484 175.35 171.601 175.302 171.689 175.273C171.785 175.236 171.887 175.218 171.997 175.218C172.166 175.218 172.302 175.291 172.404 175.438C172.514 175.577 172.569 175.761 172.569 175.988C172.569 176.127 172.54 176.256 172.481 176.373C172.423 176.483 172.342 176.567 172.239 176.626C171.733 176.934 171.117 177.088 170.391 177.088ZM176.55 175.669C177.041 175.698 177.287 175.918 177.287 176.329C177.287 176.586 177.188 176.776 176.99 176.901C176.792 177.026 176.51 177.077 176.143 177.055L175.835 177.033C175.175 176.982 174.673 176.784 174.328 176.439C173.991 176.087 173.822 175.599 173.822 174.976V173.029H173.503C172.916 173.029 172.623 172.787 172.623 172.303C172.623 171.826 172.916 171.588 173.503 171.588H173.822V170.873C173.822 170.594 173.91 170.374 174.086 170.213C174.262 170.044 174.5 169.96 174.801 169.96C175.102 169.96 175.34 170.044 175.516 170.213C175.692 170.374 175.78 170.594 175.78 170.873V171.588H176.385C176.972 171.588 177.265 171.826 177.265 172.303C177.265 172.787 176.972 173.029 176.385 173.029H175.78V175.141C175.78 175.28 175.82 175.398 175.901 175.493C175.989 175.588 176.099 175.64 176.231 175.647L176.55 175.669ZM180.535 177.088C179.941 177.088 179.417 176.974 178.962 176.747C178.515 176.512 178.166 176.182 177.917 175.757C177.675 175.332 177.554 174.833 177.554 174.261C177.554 173.689 177.675 173.194 177.917 172.776C178.166 172.351 178.515 172.024 178.962 171.797C179.409 171.57 179.934 171.456 180.535 171.456C181.136 171.456 181.661 171.57 182.108 171.797C182.555 172.024 182.9 172.351 183.142 172.776C183.391 173.194 183.516 173.689 183.516 174.261C183.516 174.833 183.391 175.332 183.142 175.757C182.9 176.182 182.555 176.512 182.108 176.747C181.661 176.974 181.136 177.088 180.535 177.088ZM180.535 175.625C181.232 175.625 181.58 175.17 181.58 174.261C181.58 173.352 181.232 172.897 180.535 172.897C179.838 172.897 179.49 173.352 179.49 174.261C179.49 175.17 179.838 175.625 180.535 175.625ZM187.835 171.478C188.084 171.456 188.282 171.515 188.429 171.654C188.575 171.786 188.649 171.984 188.649 172.248C188.649 172.541 188.579 172.754 188.44 172.886C188.308 173.018 188.066 173.102 187.714 173.139L187.384 173.172C187.017 173.216 186.753 173.333 186.592 173.524C186.438 173.707 186.361 173.96 186.361 174.283V176.164C186.361 176.465 186.265 176.692 186.075 176.846C185.891 176.993 185.66 177.066 185.382 177.066C185.103 177.066 184.868 176.993 184.678 176.846C184.494 176.692 184.403 176.465 184.403 176.164V172.358C184.403 172.079 184.494 171.863 184.678 171.709C184.868 171.555 185.096 171.478 185.36 171.478C185.631 171.478 185.847 171.551 186.009 171.698C186.177 171.845 186.262 172.05 186.262 172.314V172.523C186.379 172.2 186.57 171.951 186.834 171.775C187.105 171.599 187.387 171.504 187.681 171.489L187.835 171.478ZM195.205 177.099C194.619 177.099 194.072 177.037 193.566 176.912C193.068 176.78 192.657 176.6 192.334 176.373C192.21 176.278 192.118 176.179 192.059 176.076C192.008 175.973 191.982 175.841 191.982 175.68C191.982 175.46 192.048 175.269 192.18 175.108C192.312 174.947 192.466 174.866 192.642 174.866C192.738 174.866 192.829 174.881 192.917 174.91C193.005 174.939 193.115 174.994 193.247 175.075C193.548 175.244 193.845 175.365 194.138 175.438C194.439 175.511 194.776 175.548 195.15 175.548C195.583 175.548 195.909 175.486 196.129 175.361C196.357 175.229 196.47 175.038 196.47 174.789C196.47 174.62 196.364 174.477 196.151 174.36C195.946 174.235 195.55 174.114 194.963 173.997C194.237 173.843 193.669 173.66 193.258 173.447C192.848 173.234 192.558 172.985 192.389 172.699C192.228 172.406 192.147 172.054 192.147 171.643C192.147 171.174 192.287 170.748 192.565 170.367C192.844 169.986 193.225 169.689 193.709 169.476C194.201 169.256 194.751 169.146 195.359 169.146C195.895 169.146 196.371 169.205 196.789 169.322C197.207 169.439 197.589 169.623 197.933 169.872C198.065 169.967 198.157 170.07 198.208 170.18C198.267 170.283 198.296 170.411 198.296 170.565C198.296 170.785 198.23 170.976 198.098 171.137C197.974 171.298 197.823 171.379 197.647 171.379C197.552 171.379 197.464 171.368 197.383 171.346C197.303 171.317 197.189 171.258 197.042 171.17C197.006 171.148 196.899 171.093 196.723 171.005C196.555 170.91 196.353 170.836 196.118 170.785C195.891 170.726 195.642 170.697 195.37 170.697C194.996 170.697 194.696 170.77 194.468 170.917C194.241 171.056 194.127 171.243 194.127 171.478C194.127 171.617 194.168 171.731 194.248 171.819C194.329 171.907 194.479 171.995 194.699 172.083C194.919 172.164 195.246 172.248 195.678 172.336C196.382 172.49 196.936 172.677 197.339 172.897C197.743 173.11 198.029 173.359 198.197 173.645C198.366 173.931 198.45 174.268 198.45 174.657C198.45 175.141 198.315 175.57 198.043 175.944C197.772 176.311 197.391 176.597 196.899 176.802C196.415 177 195.851 177.099 195.205 177.099Z" fill="#0F8FB9"/>
<path d="M159.4 197.476C159.4 192.06 155.068 187.607 149.724 187.529C144.38 187.451 140.048 191.778 140.048 197.194C140.048 202.61 144.38 207.063 149.724 207.141C155.068 207.219 159.4 202.892 159.4 197.476Z" fill="#38AACC"/>
<g clip-path="url(#clip0_524_15166)">
<path d="M176 199C176.83 199 177.495 198.33 177.495 197.5L177.5 194.5C177.5 193.67 176.83 193 176 193C175.17 193 174.5 193.67 174.5 194.5V197.5C174.5 198.33 175.17 199 176 199ZM179.075 197.5C178.84 197.5 178.654 197.692 178.615 197.923C178.403 199.194 177.246 200.05 176 200.05C174.754 200.05 173.597 199.194 173.385 197.923C173.346 197.692 173.16 197.5 172.925 197.5V197.5C172.69 197.5 172.497 197.691 172.528 197.924C172.731 199.434 173.998 200.636 175.5 200.86V202C175.5 202.276 175.724 202.5 176 202.5V202.5C176.276 202.5 176.5 202.276 176.5 202V200.86C178.002 200.64 179.27 199.439 179.472 197.924C179.503 197.691 179.31 197.5 179.075 197.5V197.5Z" fill="white"/>
</g>
<path d="M206.167 196.063V194.022C206.167 193.701 205.904 193.438 205.583 193.438H198.583C198.262 193.438 198 193.701 198 194.022V199.855C198 200.176 198.262 200.438 198.583 200.438H205.583C205.904 200.438 206.167 200.176 206.167 199.855V197.813L206.793 198.44C207.423 199.07 208.5 198.624 208.5 197.733V196.144C208.5 195.253 207.423 194.807 206.793 195.437L206.167 196.063Z" fill="white"/>
<g clip-path="url(#clip1_524_15166)">
<path d="M145.459 199.95C145.894 199.516 146.385 199.166 146.905 198.9C147.071 198.819 147.177 198.649 147.177 198.458L147.036 197.207C148.513 196.684 150.352 196.648 151.886 197.186L151.784 198.462C151.787 198.656 151.897 198.823 152.06 198.907C152.583 199.169 153.071 199.523 153.506 199.957C153.696 200.148 154.015 200.148 154.206 199.957L155.429 198.734C155.62 198.543 155.765 198.229 155.5 197.963C152.215 194.679 146.753 194.682 143.472 197.963C143.221 198.214 143.344 198.536 143.539 198.731L144.759 199.95C144.95 200.141 145.268 200.141 145.459 199.95Z" fill="white"/>
</g>
<path d="M151.491 100.234C150.457 108.797 154.504 118.485 162.453 121.433C164.548 122.211 167.217 122.354 168.687 120.647C169.646 119.542 169.819 117.949 169.906 116.471C170.565 105.354 169.771 87.6804 162.713 78.5874C156.79 82.9709 152.371 92.9535 151.491 100.234Z" fill="#004E73"/>
<path d="M159.135 101.548C158.249 106.261 158.093 109.798 160.862 114.319C161.779 115.815 162.897 117.301 164.492 118.259C166.086 119.217 168.25 119.504 169.595 118.568C170.722 117.782 171.04 116.327 170.834 114.962C170.628 113.597 169.985 112.277 169.451 110.951C167.294 105.584 166.931 99.8354 168.428 94.6931C169.66 90.4569 166.995 88.7533 163.175 91.155C160.129 93.0723 159.758 98.2054 159.135 101.548Z" fill="#004E73"/>
<path d="M183.625 128.611C183.444 131.641 180.435 133.858 176.891 133.562C173.346 133.265 170.613 130.569 170.788 127.532C170.823 127.012 170.938 126.502 171.132 126.019C172.069 123.625 171.567 120.371 170.357 116.945C170.285 116.74 170.211 116.536 170.133 116.332C169.931 115.792 169.714 115.249 169.481 114.707C168.777 113.05 168.939 111.128 169.481 109.72C169.728 109.057 170.152 108.478 170.705 108.049C172.038 107.003 173.746 106.931 175.316 107.233C176.115 107.367 176.881 107.659 177.57 108.093C177.86 108.284 178.126 108.512 178.359 108.773C178.442 108.865 178.525 108.957 178.603 109.068C179.079 109.72 179.458 110.439 179.729 111.204C180.676 113.687 181.147 117.07 181.584 119.886C181.727 120.807 181.866 121.653 182.016 122.397C182.052 122.581 182.09 122.75 182.128 122.916C182.209 123.261 182.259 123.612 182.278 123.966C182.293 124.525 182.461 125.068 182.763 125.535C183.376 126.435 183.679 127.517 183.625 128.611V128.611Z" fill="#E2B3B6"/>
<path d="M181.585 119.891C178.334 119.425 171.423 117.511 169.801 114.699C169.691 114.513 169.605 114.313 169.547 114.104C169.292 113.237 169.557 112.295 170.567 111.293C172.109 109.761 175.939 109.151 178.603 109.072C179.079 109.724 179.459 110.444 179.73 111.209C180.676 113.692 181.148 117.075 181.585 119.891Z" fill="#DDABAB"/>
<path d="M160.214 80.6362C159.568 83.5371 159.147 86.5484 158.769 89.499C158.047 95.1809 157.877 101.016 159.251 106.617C159.887 109.195 160.949 111.84 162.979 113.481C163.087 113.57 163.197 113.656 163.315 113.739C164.425 114.533 165.7 114.975 167.04 115.212C168.362 115.425 169.699 115.517 171.037 115.487C174.027 115.472 177.014 115.272 179.981 114.888C180.808 114.795 181.628 114.642 182.434 114.431C183.271 114.218 184.061 113.843 184.76 113.326C185.991 112.372 186.708 110.945 187.091 109.392C187.316 108.467 187.446 107.521 187.479 106.569C187.75 100.047 188.229 85.3881 184.025 80.4686C179.821 75.5491 160.803 77.9859 160.214 80.6362Z" fill="#F7C6C6"/>
<path d="M196.47 97.6242C196.146 93.4746 195.814 89.2771 194.496 85.3375C191.084 75.1449 178.411 71.9936 168.44 73.8704C164.249 74.6587 152.899 81.5692 157.966 87.3985C158.392 87.8902 159.564 88.1352 160.442 88.1057L180.639 87.369C181.401 87.3406 182.146 87.5982 182.734 88.0928C184.72 89.7689 185.928 92.4966 186.282 95.1727C186.754 98.7532 186.04 102.369 185.723 105.968C185.596 107.424 185.916 108.896 185.849 110.342C185.732 112.869 181.876 115.068 179.94 116.051C179.339 116.353 178.876 117.254 178.69 117.91C178.259 119.437 180.583 121.056 181.76 121.343C185.954 122.374 190.001 122.039 193.679 117.053C194.981 115.285 195.594 113.219 195.957 111.04C197.692 107.213 196.805 101.93 196.47 97.6242Z" fill="#004E73"/>
<path d="M170.774 157.97C170.774 157.97 173.776 158.185 175.071 158.182H175.448C175.732 158.182 176.013 158.182 176.295 158.167C177.87 158.13 179.426 158.027 180.963 157.859L182.812 157.511L182.65 150.089L182.605 148.013L182.413 139.226L182.289 133.654V133.38V133.164V132.98L182.164 127.241V127.04V126.746V126.731V126.595L182.141 125.456V125.355L182.101 123.432L182.09 122.994C182.09 123.104 182.09 123.211 182.074 123.32C181.96 124.869 181.339 126.241 180.306 127.188C180.223 127.267 180.136 127.341 180.046 127.412C179.107 128.142 177.956 128.531 176.775 128.517C175.689 128.543 174.623 128.214 173.732 127.58V127.58C173.434 127.365 173.159 127.118 172.913 126.843C172.328 126.188 171.895 125.406 171.648 124.556C171.541 124.203 171.464 123.842 171.417 123.476C171.389 123.275 171.371 123.072 171.363 122.869V122.952V124.477V127.525L171.349 132.658V132.842V133.426L171.329 140.021V140.478V142.607V142.646L170.774 157.97Z" fill="#1A9CC6"/>
<path d="M183.93 157.824C192.447 156.327 203.382 151.513 208.749 147.009L206.531 137.513C205.33 133.153 199.905 128.626 193.868 126.858L192.882 126.567L190.162 125.771L188.382 125.248L186.292 124.635L185.595 124.432L185.449 124.39L182.254 123.453V123.478L182.24 123.836L182.22 124.362L182.144 126.388V126.398L182.135 126.582L182.119 127.035V127.232L181.909 132.809V132.993V133.122V133.203V133.262L181.899 133.531L181.676 139.392L181.299 149.533L181.212 151.822L180.99 157.795V157.858L183.93 157.824Z" fill="#EFF9FB"/>
<path d="M181.478 133.407L181.904 133.536L184.289 134.228L193.219 136.827L193.877 126.868L182.254 123.452L181.913 133.21L181.481 133.027L181.478 133.407Z" fill="#9EDAE8"/>
<path d="M181.113 151.912L181.193 151.82L193.204 137.57L184.265 133.807L181.902 132.811L181.473 132.63L181.469 132.993L181.113 151.912Z" fill="#9EDAE8"/>
<path d="M181.386 133.11L191.986 136.18L192.891 126.521L182.067 123.418L181.386 133.11Z" fill="#EFF9FB"/>
<path d="M181.078 149.754L192.018 137.25L181.407 132.786L181.078 149.754Z" fill="#EFF9FB"/>
<path d="M144.134 146.62C145.091 147.541 157.871 157.621 170.778 157.969L170.872 149.799L171.052 133.491V133.21V132.932L171.152 124.421L171.17 122.8V122.776L168.004 123.643L167.952 123.658L167.771 123.704L164.093 124.715L160.41 125.723L159.397 125.995L159.33 126.016C153.255 127.699 147.787 132.294 146.55 136.805L144.134 146.62Z" fill="#EFF9FB"/>
<path d="M171.454 133.381L171.027 133.501L168.647 134.142L159.751 136.54L159.397 126.008L171.176 122.778L171.035 133.162L171.468 132.985L171.454 133.381Z" fill="#9EDAE8"/>
<path d="M170.915 152.161L170.845 152.069L159.744 137.312L168.691 133.704L171.065 132.743L171.497 132.57L171.482 132.949L170.915 152.161Z" fill="#9EDAE8"/>
<path d="M171.558 133.073L160.986 135.91L160.396 125.673L171.365 122.75L171.558 133.073Z" fill="#EFF9FB"/>
<path d="M171.048 150.031L160.921 137.019L171.552 132.735L171.048 150.031Z" fill="#EFF9FB"/>
<defs>
<clipPath id="clip0_524_15166">
<rect width="12" height="12" fill="white" transform="translate(170 192)"/>
</clipPath>
<clipPath id="clip1_524_15166">
<rect width="12" height="12" fill="white" transform="translate(157.971 198.313) rotate(135)"/>
</clipPath>
</defs>
</svg>
