<svg width="25" height="20" viewBox="0 0 25 20" fill="none" xmlns="http://www.w3.org/2000/svg">
<path d="M24.7183 2.92189C23.7943 3.29665 22.8171 3.54554 21.8168 3.66088C22.8702 3.07943 23.6579 2.15861 24.0305 1.07289C23.0442 1.61708 21.9651 2.00027 20.8399 2.20589C20.1502 1.52025 19.2548 1.0435 18.2701 0.83757C17.2854 0.631639 16.2569 0.706049 15.3182 1.05113C14.3795 1.39621 13.5741 1.99602 13.0065 2.77261C12.4389 3.54921 12.1354 4.4667 12.1355 5.40588C12.1313 5.76479 12.1703 6.12301 12.2515 6.47388C10.2496 6.38223 8.29107 5.8984 6.5039 5.05403C4.71673 4.20966 3.1412 3.02376 1.88035 1.57389C1.23266 2.60395 1.03203 3.82527 1.31943 4.98836C1.60684 6.15145 2.3606 7.16854 3.42674 7.83189C2.63038 7.81187 1.85086 7.61398 1.15391 7.25489V7.30588C1.1547 8.38709 1.55606 9.43498 2.29032 10.2729C3.02459 11.1108 4.04687 11.6876 5.18482 11.9059C4.75423 12.0114 4.31046 12.0632 3.86518 12.0599C3.54565 12.0651 3.22643 12.0383 2.91307 11.9799C3.23822 12.9092 3.8649 13.7218 4.70686 14.306C5.54882 14.8902 6.56465 15.2171 7.61455 15.2419C5.83401 16.539 3.63759 17.2432 1.37636 17.2419C0.9748 17.2441 0.573506 17.2224 0.174927 17.1769C2.47589 18.5561 5.15696 19.2855 7.89395 19.2769C9.7778 19.289 11.6455 18.9527 13.3885 18.2875C15.1315 17.6224 16.7152 16.6416 18.0475 15.4022C19.3798 14.1627 20.4342 12.6894 21.1495 11.0676C21.8649 9.44579 22.2268 7.70792 22.2144 5.95489C22.2144 5.74789 22.2069 5.54788 22.1961 5.34988C23.1884 4.68986 24.043 3.86709 24.7183 2.92189Z" fill="white"/>
</svg>
